<?xml version="1.0" encoding="UTF-8" standalone="no"?>
<svg
   width="129"
   height="129"
   viewBox="0 0 129 129"
   fill="none"
   version="1.1"
   id="svg4"
   sodipodi:docname="logo.svg"
   inkscape:version="1.2.1 (9c6d41e410, 2022-07-14)"
   xmlns:inkscape="http://www.inkscape.org/namespaces/inkscape"
   xmlns:sodipodi="http://sodipodi.sourceforge.net/DTD/sodipodi-0.dtd"
   xmlns="http://www.w3.org/2000/svg"
   xmlns:svg="http://www.w3.org/2000/svg">
  <defs
     id="defs8" />
  <sodipodi:namedview
     id="namedview6"
     pagecolor="#505050"
     bordercolor="#ffffff"
     borderopacity="1"
     inkscape:showpageshadow="0"
     inkscape:pageopacity="0"
     inkscape:pagecheckerboard="1"
     inkscape:deskcolor="#505050"
     showgrid="false"
     inkscape:zoom="7.3178294"
     inkscape:cx="94.768538"
     inkscape:cy="79.463453"
     inkscape:window-width="1920"
     inkscape:window-height="1043"
     inkscape:window-x="1920"
     inkscape:window-y="0"
     inkscape:window-maximized="1"
     inkscape:current-layer="svg4" />
  <path
     fill-rule="evenodd"
     clip-rule="evenodd"
     d="m 16.866216,48.725058 c -0.342098,4.476745 -0.350134,5.183933 -0.250068,8.39421 0.371104,2.574044 0.605606,3.560388 1.323998,6.251277 C 11.766512,71.7409 13.3206,80.3873 14.2693,86.6348 c 0.9486,6.2475 3.6831,12.0886 7.8749,16.8212 4.1917,4.733 9.6624,8.156 15.7548,9.858 6.0924,1.702 12.5472,1.611 18.5889,-0.263 6.0417,-1.874 11.4132,-5.45 15.4692,-10.299 0.5221,-0.625 1.0195,-1.266 1.4917,-1.925 6.2642,-0.705 12.3284,-2.4862 17.9344,-5.2366 -1.8235,5.8526 -4.7913,11.3156 -8.7606,16.0616 -5.772,6.901 -13.4161,11.99 -22.0138,14.657 -8.5978,2.666 -17.7835,2.796 -26.4533,0.374 C 25.4856,124.261 17.7003,119.389 11.7351,112.654 5.76993,105.919 1.87856,97.6071 0.528593,88.7165 -0.821375,79.8258 0.427483,70.7349 4.12511,62.536 6.2391136,58.236848 9.9895993,53.562576 16.866216,48.725058 Z M 90.7466,87.1125 h -1e-4 c -0.0993,0.0574 -0.1988,0.1144 -0.2985,0.171 0.0997,-0.0566 0.1993,-0.1136 0.2986,-0.171 z m -11.9301,4.8462 c -0.3116,0.0788 -0.6239,0.1544 -0.9369,0.2268 0,0 -1e-4,0 -1e-4,10e-5 0.3132,-0.0724 0.6256,-0.1481 0.937,-0.2269 z"
     fill="#24c8db"
     id="path18"
     sodipodi:nodetypes="cccccssccccccsscccccccccc" />
  <path
     fill="#1ed760"
     d="m 67.837938,4.2024037 c -27.519956,0 -49.830344,21.2634473 -49.830344,47.4926943 0,26.230381 22.310388,47.492122 49.830344,47.492122 27.522928,0 49.830952,-21.261741 49.830952,-47.492122 0,-26.227547 -22.308024,-47.4904263 -49.831548,-47.4904263 z M 90.689826,72.700499 c -0.892565,1.39514 -2.808596,1.8375 -4.272384,0.98114 C 74.71778,66.870396 59.989366,65.327795 42.643987,69.104886 40.972525,69.46785 39.306416,68.469703 38.925592,66.87606 c -0.38261,-1.593639 0.660493,-3.181602 2.336122,-3.544567 18.981738,-4.134958 35.263795,-2.353599 48.398684,5.297 1.463787,0.856374 1.927922,2.676856 1.029428,4.072006 z m 6.099135,-12.933425 c -1.124616,1.743931 -3.516682,2.294045 -5.343455,1.222168 -13.394319,-7.848524 -33.811897,-10.121018 -49.654802,-5.537465 -2.054669,0.591518 -4.224776,-0.51212 -4.848376,-2.467027 -0.618842,-1.958296 0.5397,-4.022659 2.590798,-4.618146 18.096917,-5.233486 40.594751,-2.69841 55.976494,6.310473 1.826783,1.071875 2.403967,3.351739 1.279341,5.090564 z m 0.52364,-13.465962 C 81.252504,37.209433 54.755405,36.373483 39.421854,40.809014 c -2.462272,0.711752 -5.06616,-0.613067 -5.81234,-2.959857 -0.746178,-2.347923 0.642642,-4.827986 3.106697,-5.541437 17.601843,-5.092839 46.862892,-4.108866 65.353129,6.353002 2.2195,1.252793 2.94545,3.978993 1.6304,6.087018 -1.30908,2.110863 -4.177166,2.806733 -6.384765,1.553372 z"
     id="path345"
     style="stroke-width:0.580917" />
</svg>
