<svg viewBox="0 0 11570 12150"><path fill="#1ED760" stroke="#1ED760" fill-rule="evenodd" d="M6556 9210c-1080-71-2053-463-2856-1150-147-125-418-401-542-550-373-450-644-936-824-1475-242-728-295-1475-159-2230C2481 2106 3766 698 5467 201 5975 52 6464-8 7020 11c963 32 1903 360 2675 933 261 194 571 482 766 711 622 728 993 1598 1084 2540 20 214 20 611-1 830-103 1086-586 2087-1378 2852-368 354-744 619-1201 843-601 295-1204 451-1883 489-227 13-343 13-526 1m2100-2434c-19-7-83-40-143-74-589-327-1173-500-1938-575-195-18-795-15-1025 6-334 30-629 74-965 142-190 38-250 42-319 19-64-22-138-92-167-157-61-137-2-305 130-372 51-26 334-87 631-135 229-38 566-76 808-91 240-16 852-7 1062 15 758 78 1428 281 2040 616 217 119 269 177 278 307 5 81-11 137-57 198-53 70-121 103-221 110-54 3-91 0-114-9m495-1225c-27-9-91-42-143-72-625-361-1444-606-2318-694-740-75-1572-14-2205 160-172 48-224 55-291 44-123-20-218-86-276-192-32-59-33-68-33-162 0-87 3-108 25-156 31-65 102-139 162-168 76-37 348-108 617-161 1241-246 2671-133 3851 306 311 116 647 274 906 427 79 47 147 122 174 194 31 83 25 206-13 283-61 124-174 196-322 205-67 3-96 1-134-14m586-1415c-24-7-106-47-183-87-301-159-516-251-844-360-606-201-1283-323-2050-369-214-13-829-13-1040 0-486 29-967 101-1325 196-238 63-271 68-355 55-152-23-275-112-341-246-33-68-34-74-34-185 0-110 1-119 32-181 40-82 116-161 191-199 107-54 474-144 835-205 767-130 1694-156 2537-70 1099 112 2091 393 2834 803 156 86 214 136 262 227 117 222 28 484-201 590-66 30-88 35-175 40-69 3-114 0-143-9"/><path fill="#24C8DB" stroke="#24C8DB" fill-rule="evenodd" d="M4467 12141c-855-45-1650-302-2347-759C1066 10691 347 9629 95 8392-3 7912-20 7391 45 6870c69-550 270-1158 548-1654 323-578 766-1084 1296-1478 63-47 117-85 119-83 1 1-9 60-22 131-51 264-77 541-77 833 1 286 17 475 67 783l26 157-65 98c-120 183-194 317-273 497-210 482-301 983-273 1503 74 1400 1026 2593 2379 2982 1041 299 2172 59 3012-638 182-151 376-357 538-570 24-33 25-33 190-57 514-74 1057-234 1505-444l106-50-7 32c-23 104-166 453-275 668-502 993-1335 1769-2366 2203-480 202-1058 334-1541 352-73 2-168 7-212 10-44 2-158 0-253-4"/></svg>