<?xml version="1.0" encoding="UTF-8" standalone="no"?>
<svg
   width="115.73703"
   height="121.90715"
   viewBox="0 0 115.73703 121.90715"
   fill="none"
   version="1.1"
   id="svg26"
   xml:space="preserve"
   xmlns="http://www.w3.org/2000/svg"
   xmlns:svg="http://www.w3.org/2000/svg"><defs
     id="defs30"><clipPath
       clipPathUnits="userSpaceOnUse"
       id="clipPath260"><ellipse
         style="display:none;fill:#000000;stroke-width:0.885094"
         id="ellipse262"
         cx="68.460052"
         cy="53.13092"
         rx="49.324417"
         ry="47.439041"
         d="M 117.78447,53.13092 A 49.324417,47.439041 0 0 1 68.460052,100.56996 49.324417,47.439041 0 0 1 19.135635,53.13092 49.324417,47.439041 0 0 1 68.460052,5.6918793 49.324417,47.439041 0 0 1 117.78447,53.13092 Z" /><path
         id="lpe_path-effect264"
         style="fill:#000000;stroke-width:0.885094"
         class="powerclip"
         d="M -4.9999998,34.593129 H 96.3832 V 133.40868 H -4.9999998 Z M 117.78447,53.13092 A 49.324417,47.439041 0 0 0 68.460052,5.6918793 49.324417,47.439041 0 0 0 19.135635,53.13092 49.324417,47.439041 0 0 0 68.460052,100.56996 49.324417,47.439041 0 0 0 117.78447,53.13092 Z" /></clipPath></defs><path
     fill-rule="evenodd"
     clip-rule="evenodd"
     d="m 21.3728,42.4981 c 4.9779,-3.2135 5.533907,-1.760871 11.293507,-2.904971 -1.3021,3.5319 2.950793,3.673471 2.950793,7.656771 0,1.1915 0.0636,2.3681 0.1876,3.5266 -2.4085,0.85 -4.7214,1.9817 -6.8881,3.3805 -5.3131,3.43 -9.5217,8.3194 -12.12,14.0807 -2.5984,5.7614 -3.476,12.1496 -2.5273,18.3971 0.9486,6.2475 3.6831,12.0886 7.8749,16.8212 4.1917,4.733 9.6624,8.156 15.7548,9.858 6.0924,1.702 12.5472,1.611 18.5889,-0.263 6.0417,-1.874 11.4132,-5.45 15.4692,-10.299 0.5221,-0.625 1.0195,-1.266 1.4917,-1.925 6.2642,-0.705 12.3284,-2.4862 17.9344,-5.2366 -1.8235,5.8526 -4.7913,11.3156 -8.7606,16.0616 -5.772,6.901 -13.4161,11.99 -22.0138,14.657 -8.5978,2.666 -17.7835,2.796 -26.4533,0.374 C 25.4856,124.261 17.7003,119.389 11.7351,112.654 5.76993,105.919 1.87856,97.6071 0.528593,88.7165 -0.821375,79.8258 0.427483,70.7349 4.12511,62.536 7.82274,54.3372 13.8118,47.3792 21.3728,42.4981 Z m 69.3738,44.6144 h -1e-4 c -0.0993,0.0574 -0.1988,0.1144 -0.2985,0.171 0.0997,-0.0566 0.1993,-0.1136 0.2986,-0.171 z m -11.9301,4.8462 c -0.3116,0.0788 -0.6239,0.1544 -0.9369,0.2268 0,0 -1e-4,0 -1e-4,10e-5 0.3132,-0.0724 0.6256,-0.1481 0.937,-0.2269 z"
     fill="#24c8db"
     id="path18"
     clip-path="url(#clipPath260)"
     transform="translate(-1.79784e-7,-6.5015273)" /><path
     fill="#1ed760"
     d="M 68.147881,-1.0941772e-7 C 41.865998,-1.0941772e-7 20.559311,20.735023 20.559311,46.31244 c 0,25.578523 21.306687,46.311883 47.58857,46.311883 26.284723,0 47.589149,-20.73336 47.589149,-46.311883 0,-25.57576 -21.304426,-46.31022931 -47.589719,-46.31022931 z M 89.971706,66.79583 c -0.85241,1.36047 -2.682244,1.791836 -4.080178,0.956758 -11.173316,-6.641975 -25.239127,-8.146241 -41.804172,-4.463015 -1.596263,0.353944 -3.187418,-0.619398 -3.551106,-2.173436 -0.365397,-1.554036 0.630776,-3.102536 2.231023,-3.456481 18.127783,-4.032199 33.677341,-2.295109 46.221316,5.165363 1.397935,0.835092 1.841189,2.610333 0.983117,3.970811 z m 5.824746,-12.612013 c -1.074021,1.700593 -3.358473,2.237035 -5.103063,1.191796 -12.791734,-7.653479 -32.290764,-9.869498 -47.420925,-5.399852 -1.962234,0.576818 -4.034715,-0.499393 -4.630261,-2.405718 -0.591,-1.909631 0.515421,-3.922692 2.474245,-4.50338 17.282771,-5.103427 38.768471,-2.631351 53.458218,6.15365 1.7446,1.045238 2.295817,3.268444 1.221786,4.964057 z m 0.500082,-13.131316 c -15.337583,-8.865738 -40.642628,-9.680915 -55.28635,-5.355612 -2.351497,0.694065 -4.838243,-0.597832 -5.550854,-2.8863 -0.712611,-2.289575 0.613729,-4.708005 2.966926,-5.403726 16.809974,-4.966275 44.754624,-4.006755 62.413024,6.195122 2.11964,1.221659 2.81294,3.88011 1.55705,5.935747 -1.25019,2.058406 -3.989242,2.736983 -6.097528,1.514769 z"
     id="path345"
     style="stroke-width:0.560601" /></svg>
