<?xml version="1.0" encoding="UTF-8" standalone="no"?>
<svg
   width="115.73703"
   height="121.50394"
   viewBox="0 0 115.73703 121.50394"
   fill="none"
   version="1.1"
   id="svg26"
   xml:space="preserve"
   sodipodi:docname="logo.svg"
   inkscape:export-filename="logo.svg"
   inkscape:export-xdpi="96"
   inkscape:export-ydpi="96"
   inkscape:version="1.2.1 (9c6d41e410, 2022-07-14)"
   xmlns:inkscape="http://www.inkscape.org/namespaces/inkscape"
   xmlns:sodipodi="http://sodipodi.sourceforge.net/DTD/sodipodi-0.dtd"
   xmlns="http://www.w3.org/2000/svg"
   xmlns:svg="http://www.w3.org/2000/svg"><sodipodi:namedview
     id="namedview9"
     pagecolor="#505050"
     bordercolor="#ffffff"
     borderopacity="1"
     inkscape:showpageshadow="0"
     inkscape:pageopacity="0"
     inkscape:pagecheckerboard="1"
     inkscape:deskcolor="#505050"
     showgrid="false"
     inkscape:zoom="4.5532918"
     inkscape:cx="19.76592"
     inkscape:cy="60.725298"
     inkscape:window-width="1920"
     inkscape:window-height="1043"
     inkscape:window-x="0"
     inkscape:window-y="0"
     inkscape:window-maximized="1"
     inkscape:current-layer="svg26" /><defs
     id="defs30"><clipPath
       clipPathUnits="userSpaceOnUse"
       id="clipPath260"><ellipse
         style="display:none;fill:#000000;stroke-width:0.885094"
         id="ellipse262"
         cx="68.460052"
         cy="53.13092"
         rx="49.324417"
         ry="47.439041" /><path
         id="lpe_path-effect264"
         style="fill:#000000;stroke-width:0.885094"
         class="powerclip"
         d="M -4.9999998,34.593129 H 96.3832 V 133.40868 H -4.9999998 Z M 117.78447,53.13092 A 49.324417,47.439041 0 0 0 68.460052,5.6918793 49.324417,47.439041 0 0 0 19.135635,53.13092 49.324417,47.439041 0 0 0 68.460052,100.56996 49.324417,47.439041 0 0 0 117.78447,53.13092 Z" /></clipPath></defs><path
     fill-rule="evenodd"
     clip-rule="evenodd"
     d="m 21.3728,42.4981 c 4.9779,-3.2135 5.533907,-1.760871 11.293507,-2.904971 -1.3021,3.5319 2.950793,3.673471 2.950793,7.656771 0,1.1915 0.0636,2.3681 0.1876,3.5266 -2.4085,0.85 -4.7214,1.9817 -6.8881,3.3805 -5.3131,3.43 -9.5217,8.3194 -12.12,14.0807 -2.5984,5.7614 -3.476,12.1496 -2.5273,18.3971 0.9486,6.2475 3.6831,12.0886 7.8749,16.8212 4.1917,4.733 9.6624,8.156 15.7548,9.858 6.0924,1.702 12.5472,1.611 18.5889,-0.263 6.0417,-1.874 11.4132,-5.45 15.4692,-10.299 0.5221,-0.625 1.0195,-1.266 1.4917,-1.925 6.2642,-0.705 12.3284,-2.4862 17.9344,-5.2366 -1.8235,5.8526 -4.7913,11.3156 -8.7606,16.0616 -5.772,6.901 -13.4161,11.99 -22.0138,14.657 -8.5978,2.666 -17.7835,2.796 -26.4533,0.374 C 25.4856,124.261 17.7003,119.389 11.7351,112.654 5.76993,105.919 1.87856,97.6071 0.528593,88.7165 -0.821375,79.8258 0.427483,70.7349 4.12511,62.536 7.82274,54.3372 13.8118,47.3792 21.3728,42.4981 Z m 69.3738,44.6144 h -1e-4 c -0.0993,0.0574 -0.1988,0.1144 -0.2985,0.171 0.0997,-0.0566 0.1993,-0.1136 0.2986,-0.171 z m -11.9301,4.8462 c -0.3116,0.0788 -0.6239,0.1544 -0.9369,0.2268 0,0 -1e-4,0 -1e-4,10e-5 0.3132,-0.0724 0.6256,-0.1481 0.937,-0.2269 z"
     fill="#24c8db"
     id="path18"
     clip-path="url(#clipPath260)"
     transform="translate(-1.79784e-7,-6.9047382)" /><path
     fill="#1ed760"
     d="M 68.355045,0 C 42.187572,0 20.973637,20.64476 20.973637,46.110833 c 0,25.467175 21.213935,46.110279 47.381408,46.110279 26.170297,0 47.381985,-20.643104 47.381985,-46.110279 0,-25.464424 -21.211688,-46.10863184 -47.382552,-46.10863184 z m 21.728826,66.505055 c -0.848699,1.354548 -2.670573,1.784036 -4.062418,0.952593 -11.124678,-6.613061 -25.129258,-8.110779 -41.622193,-4.443586 -1.589314,0.352403 -3.173542,-0.616702 -3.535647,-2.163975 -0.363806,-1.547271 0.62803,-3.08903 2.221311,-3.441434 18.048869,-4.014646 33.530737,-2.285118 46.020107,5.142877 1.391845,0.831457 1.833175,2.59897 0.97884,3.953525 z m 5.799384,-12.55711 c -1.069345,1.69319 -3.34385,2.227296 -5.080845,1.186608 -12.736051,-7.620162 -32.150198,-9.826535 -47.214494,-5.376346 -1.953692,0.574307 -4.017151,-0.497219 -4.610105,-2.395245 -0.588427,-1.901318 0.513178,-3.905616 2.463474,-4.483776 17.207536,-5.081211 38.599705,-2.619896 53.225509,6.126862 1.737005,1.040688 2.285816,3.254216 1.216461,4.942447 z M 96.381158,40.873792 C 81.110346,32.046648 55.915459,31.23502 41.335484,35.541494 c -2.341261,0.691043 -4.817181,-0.59523 -5.52669,-2.873736 -0.709509,-2.279608 0.611057,-4.68751 2.95401,-5.380202 16.736797,-4.944656 44.559799,-3.989313 62.141326,6.168153 2.11042,1.216341 2.8007,3.863219 1.55027,5.909908 -1.24474,2.049445 -3.97187,2.725068 -6.070982,1.508175 z"
     id="path345"
     style="stroke-width:0.558161" /></svg>
