<svg viewBox="0 0 11570 12150">
	<path id="pqd1QScO1" fill="rgb(30,215,96)" stroke="rgb(30,215,96)" stroke-width="1" fill-rule="evenodd"
		d="M6556 9210 C5476 9139 4503 8747 3700 8060 C3553 7935 3282 7659 3158 7510 C2785 7060 2514 6574 2334 6035 C2092 5307 2039 4560 2175 3805 C2481 2106 3766 698 5467 201 C5975 52 6464 -8 7020 11 C7983 43 8923 371 9695 944 C9956 1138 10266 1426 10461 1655 C11083 2383 11454 3253 11545 4195 C11565 4409 11565 4806 11544 5025 C11441 6111 10958 7112 10166 7877 C9798 8231 9422 8496 8965 8720 C8364 9015 7761 9171 7082 9209 C6855 9222 6739 9222 6556 9210 M8656 6776 C8637 6769 8573 6736 8513 6702 C7924 6375 7340 6202 6575 6127 C6380 6109 5780 6112 5550 6133 C5216 6163 4921 6207 4585 6275 C4395 6313 4335 6317 4266 6294 C4202 6272 4128 6202 4099 6137 C4038 6000 4097 5832 4229 5765 C4280 5739 4563 5678 4860 5630 C5089 5592 5426 5554 5668 5539 C5908 5523 6520 5532 6730 5554 C7488 5632 8158 5835 8770 6170 C8987 6289 9039 6347 9048 6477 C9053 6558 9037 6614 8991 6675 C8938 6745 8870 6778 8770 6785 C8716 6788 8679 6785 8656 6776 M9151 5551 C9124 5542 9060 5509 9008 5479 C8383 5118 7564 4873 6690 4785 C5950 4710 5118 4771 4485 4945 C4313 4993 4261 5000 4194 4989 C4071 4969 3976 4903 3918 4797 C3886 4738 3885 4729 3885 4635 C3885 4548 3888 4527 3910 4479 C3941 4414 4012 4340 4072 4311 C4148 4274 4420 4203 4689 4150 C5930 3904 7360 4017 8540 4456 C8851 4572 9187 4730 9446 4883 C9525 4930 9593 5005 9620 5077 C9651 5160 9645 5283 9607 5360 C9546 5484 9433 5556 9285 5565 C9218 5568 9189 5566 9151 5551 M9737 4136 C9713 4129 9631 4089 9554 4049 C9253 3890 9038 3798 8710 3689 C8104 3488 7427 3366 6660 3320 C6446 3307 5831 3307 5620 3320 C5134 3349 4653 3421 4295 3516 C4057 3579 4024 3584 3940 3571 C3788 3548 3665 3459 3599 3325 C3566 3257 3565 3251 3565 3140 C3565 3030 3566 3021 3597 2959 C3637 2877 3713 2798 3788 2760 C3895 2706 4262 2616 4623 2555 C5390 2425 6317 2399 7160 2485 C8259 2597 9251 2878 9994 3288 C10150 3374 10208 3424 10256 3515 C10373 3737 10284 3999 10055 4105 C9989 4135 9967 4140 9880 4145 C9811 4148 9766 4145 9737 4136 ">
	</path>
	<path id="p14oZ0DTtg" fill="rgb(36,200,219)" stroke="rgb(36,200,219)" stroke-width="1" fill-rule="evenodd"
		d="M4467 12141 C3612 12096 2817 11839 2120 11382 C1066 10691 347 9629 95 8392 C-3 7912 -20 7391 45 6870 C114 6320 315 5712 593 5216 C916 4638 1359 4132 1889 3738 C1952 3691 2006 3653 2008 3655 C2009 3656 1999 3715 1986 3786 C1935 4050 1909 4327 1909 4619 C1910 4905 1926 5094 1976 5402 L2002 5559 1937 5657 C1817 5840 1743 5974 1664 6154 C1454 6636 1363 7137 1391 7657 C1465 9057 2417 10250 3770 10639 C4811 10938 5942 10698 6782 10001 C6964 9850 7158 9644 7320 9431 C7344 9398 7345 9398 7510 9374 C8024 9300 8567 9140 9015 8930 L9121 8880 9114 8912 C9091 9016 8948 9365 8839 9580 C8337 10573 7504 11349 6473 11783 C5993 11985 5415 12117 4932 12135 C4859 12137 4764 12142 4720 12145 C4676 12147 4562 12145 4467 12141 ">
	</path>
</svg>

