<svg width="115.737" height="121.504" fill="none" xml:space="preserve" xmlns="http://www.w3.org/2000/svg"><defs><clipPath clipPathUnits="userSpaceOnUse" id="a"><path style="fill:#000;stroke-width:.885094" class="powerclip" d="M-5 34.593H96.383v98.816H-5zm122.784 18.538A49.324 47.439 0 0 0 68.46 5.69a49.324 47.439 0 0 0-49.324 47.44A49.324 47.439 0 0 0 68.46 100.57a49.324 47.439 0 0 0 49.324-47.44z"/></clipPath></defs><path fill-rule="evenodd" clip-rule="evenodd" d="M21.373 42.498c4.978-3.213 5.534-1.76 11.293-2.905-1.302 3.532 2.951 3.674 2.951 7.657 0 1.191.064 2.368.188 3.526a32.823 32.823 0 0 0-19.008 17.461 32.777 32.777 0 0 0 5.347 35.219 32.851 32.851 0 0 0 15.755 9.858 32.884 32.884 0 0 0 18.589-.263 32.856 32.856 0 0 0 16.96-12.224 54.574 54.574 0 0 0 17.935-5.237 46.678 46.678 0 0 1-8.76 16.062 46.756 46.756 0 0 1-22.014 14.657 46.804 46.804 0 0 1-26.454.374 46.754 46.754 0 0 1-22.42-14.029 46.646 46.646 0 0 1-7.61-50.118 46.71 46.71 0 0 1 17.248-20.038zm69.374 44.615zm-11.93 4.846a46.633 46.633 0 0 0 0 0z" fill="#24c8db" clip-path="url(#a)" transform="translate(0 -6.905)"/><path fill="#1ed760" d="M68.355 0C42.188 0 20.974 20.645 20.974 46.11c0 25.468 21.214 46.111 47.381 46.111 26.17 0 47.382-20.643 47.382-46.11 0-25.465-21.212-46.109-47.383-46.109zm21.729 66.505c-.849 1.355-2.67 1.784-4.063.953-11.124-6.613-25.129-8.111-41.622-4.444-1.59.352-3.173-.617-3.535-2.164-.364-1.547.628-3.089 2.22-3.441 18.05-4.015 33.532-2.285 46.021 5.143 1.392.831 1.833 2.598.979 3.953zm5.8-12.557c-1.07 1.693-3.345 2.227-5.082 1.187-12.736-7.62-32.15-9.827-47.214-5.377-1.954.575-4.017-.497-4.61-2.395-.589-1.901.513-3.906 2.463-4.484 17.208-5.081 38.6-2.62 53.226 6.127 1.737 1.04 2.286 3.254 1.216 4.942zm.497-13.074c-15.27-8.827-40.466-9.639-55.046-5.333-2.34.692-4.817-.595-5.526-2.873-.71-2.28.61-4.688 2.954-5.38 16.737-4.945 44.56-3.99 62.141 6.168 2.11 1.216 2.8 3.863 1.55 5.91-1.244 2.05-3.971 2.725-6.07 1.508z" style="stroke-width:.558161"/></svg>