<svg viewBox="0 0 48 48" xmlns="http://www.w3.org/2000/svg">
   <path id="pqd1QScO1" fill="#1ed760" stroke="#1ed760" stroke-width="0.00394721" fill-rule="evenodd"
      d="M 27.094002,36.405105 C 22.831013,36.124927 18.990378,34.577572 15.820767,31.865931 15.240527,31.372518 14.170833,30.282955 13.681379,29.694934 12.209069,27.918596 11.139375,26.000269 10.428876,23.872847 9.4736519,20.999167 9.2644489,18.050591 9.8012699,15.070541 11.009116,8.364177 16.081283,2.8065279 22.795489,0.84479037 c 2.005184,-0.58819065 3.93537,-0.82495686 6.13002,-0.75006675 3.801164,0.12642323 7.511543,1.42110118 10.558789,3.68273408 1.030223,0.7658052 2.253858,1.9025872 3.023564,2.8065737 2.455167,2.873517 3.919581,6.3075526 4.278778,10.0259106 0.07895,0.844673 0.07895,2.411747 -0.004,3.276137 -0.406563,4.286662 -2.313066,8.237805 -5.439258,11.257457 -1.452572,1.397243 -2.936724,2.44339 -4.740599,3.327496 -2.372275,1.164454 -4.752444,1.780145 -7.432599,1.930259 -0.896018,0.0512 -1.353895,0.0512 -2.076234,0.0034 m 8.289144,-9.607378 c -0.07499,-0.02764 -0.327618,-0.157898 -0.564452,-0.292109 -2.324906,-1.290866 -4.630077,-1.973663 -7.649695,-2.26975 -0.769707,-0.07108 -3.138034,-0.05915 -4.045892,0.02368 -1.318367,0.11846 -2.482795,0.292109 -3.809058,0.560518 -0.74997,0.149949 -0.986803,0.165853 -1.25916,0.07506 -0.252622,-0.08683 -0.544715,-0.363186 -0.659185,-0.619669 -0.240781,-0.540808 -0.0078,-1.204051 0.513138,-1.468489 0.201307,-0.102561 1.318367,-0.343305 2.49069,-0.532852 0.903911,-0.149945 2.234122,-0.299895 3.189347,-0.359209 0.94733,-0.06313 3.363024,-0.02764 4.191938,0.05931 2.991987,0.307849 5.636618,1.109111 8.052311,2.431464 0.856545,0.469724 1.0618,0.698537 1.097326,1.211672 0.01973,0.319775 -0.04343,0.540802 -0.224992,0.781545 -0.209202,0.27637 -0.477613,0.406598 -0.872334,0.434268 -0.213148,0.01167 -0.359195,0 -0.449982,-0.03546 m 1.953869,-4.835418 c -0.10657,-0.03546 -0.359196,-0.165691 -0.56445,-0.284155 -2.467008,-1.424913 -5.699774,-2.392029 -9.149637,-2.739475 -2.920935,-0.295918 -6.205015,-0.05517 -8.703601,0.6316 -0.678919,0.189548 -0.884175,0.21705 -1.148639,0.173638 -0.485506,-0.07886 -0.860492,-0.339327 -1.089429,-0.75785 -0.126314,-0.23279 -0.130254,-0.268414 -0.130254,-0.639386 0,-0.343475 0.01181,-0.426314 0.09868,-0.615698 0.12236,-0.256647 0.402615,-0.548756 0.63945,-0.663243 0.299986,-0.145973 1.373627,-0.426314 2.435427,-0.635415 4.89849,-0.971092 10.543001,-0.525061 15.20071,1.207865 1.227584,0.457793 2.553847,1.081439 3.576175,1.685369 0.311829,0.18557 0.58024,0.481657 0.686814,0.765805 0.122359,0.327565 0.09868,0.81303 -0.05131,1.117065 -0.240779,0.489443 -0.686814,0.773597 -1.271001,0.809217 -0.264463,0.01167 -0.378933,0.0034 -0.528928,-0.05534 m 2.313068,-5.585321 c -0.09474,-0.02764 -0.418405,-0.18557 -0.722341,-0.343305 -1.188111,-0.627624 -2.036761,-0.990809 -3.331446,-1.421101 -2.392012,-0.793307 -5.064273,-1.274964 -8.091782,-1.456557 -0.844705,-0.0512 -3.272239,-0.0512 -4.105102,0 -1.918345,0.114492 -3.816952,0.398813 -5.230054,0.77376 -0.939436,0.248699 -1.069694,0.268415 -1.40126,0.217049 -0.599976,-0.09079 -1.085482,-0.442053 -1.345998,-0.970928 -0.130254,-0.268409 -0.134208,-0.292104 -0.134208,-0.730349 0,-0.434099 0.004,-0.469725 0.126313,-0.71444 0.157888,-0.323589 0.457877,-0.635414 0.753917,-0.785528 0.422352,-0.213072 1.870977,-0.568303 3.295921,-0.809047 3.027511,-0.5131359 6.686576,-0.6158617 10.014075,-0.2763697 4.337986,0.4420527 8.25362,1.5513327 11.186396,3.1695967 0.615765,0.339498 0.844704,0.536831 1.034171,0.896039 0.461824,0.876322 0.110525,1.910378 -0.79339,2.328901 -0.260516,0.118309 -0.347354,0.138018 -0.690762,0.157899 -0.272357,0.01167 -0.449983,0 -0.56445,-0.03563" />
   <path id="p14oZ0DTtg" fill="#24c8db" stroke="#24c8db" stroke-width="0.00394721" fill-rule="evenodd"
      d="M 18.848278,47.974389 C 15.473413,47.796767 12.33538,46.782432 9.5841729,44.97843 5.4238129,42.25105 2.5857679,38.058995 1.5910709,33.176357 1.2042439,31.281719 1.1371419,29.225209 1.3937099,27.1687 c 0.272358,-2.171002 1.065747,-4.570818 2.163072,-6.528748 1.274949,-2.281512 3.023564,-4.278707 5.115586,-5.833849 0.248674,-0.18557 0.461824,-0.335514 0.469718,-0.327729 0.004,0.0034 -0.03553,0.236935 -0.08684,0.517108 -0.201308,1.042011 -0.303935,2.135382 -0.303935,3.288068 0.004,1.128827 0.0671,1.874916 0.264463,3.090565 l 0.102628,0.619838 -0.256569,0.386711 c -0.473665,0.7224 -0.765758,1.25127 -1.077588,1.961908 -0.828915,1.902418 -1.188111,3.880066 -1.077589,5.932597 0.292094,5.526007 4.0498391,10.235169 9.3904151,11.770594 4.109046,1.180192 8.573343,0.232789 11.888999,-2.51828 0.718394,-0.596144 1.484154,-1.409174 2.1236,-2.250033 0.09474,-0.13024 0.09868,-0.13024 0.749971,-0.225004 2.028866,-0.292109 4.172202,-0.923541 5.940553,-1.752474 l 0.418403,-0.197339 -0.02762,0.126258 c -0.09078,0.410575 -0.655237,1.788101 -1.085482,2.636751 -1.981502,3.919499 -5.269529,6.982558 -9.339103,8.695767 -1.894661,0.797284 -4.176148,1.318375 -6.082653,1.389289 -0.288145,0.0082 -0.66313,0.02764 -0.836809,0.0396 -0.173676,0.0082 -0.623659,0 -0.998644,-0.01656" />
</svg>
