<svg width="48" height="48" xmlns="http://www.w3.org/2000/svg"><g stroke-width=".004" fill-rule="evenodd"><path fill="#1db954" stroke="#1db954" d="M27.05 36.405c-4.262-.28-8.103-1.827-11.272-4.54-.58-.492-1.65-1.582-2.14-2.17a17.883 17.883 0 0 1-3.252-5.822 17.634 17.634 0 0 1-.628-8.802C10.966 8.364 16.038 2.807 22.752.845c2.006-.588 3.936-.825 6.13-.75a18.833 18.833 0 0 1 10.56 3.682c1.03.766 2.253 1.903 3.023 2.807 2.455 2.874 3.92 6.308 4.278 10.026.08.845.08 2.412-.004 3.276-.406 4.287-2.313 8.238-5.439 11.258a18.099 18.099 0 0 1-4.74 3.327c-2.373 1.164-4.753 1.78-7.433 1.93-.896.051-1.354.051-2.076.004m8.289-9.608a6.305 6.305 0 0 1-.565-.292c-2.324-1.29-4.63-1.973-7.65-2.27-.769-.07-3.137-.059-4.045.024a33.593 33.593 0 0 0-3.81.56c-.75.15-.986.167-1.258.076-.253-.087-.545-.363-.66-.62a1.147 1.147 0 0 1 .514-1.468c.2-.103 1.318-.344 2.49-.533.904-.15 2.234-.3 3.19-.36.947-.063 3.363-.027 4.192.06 2.992.308 5.636 1.109 8.052 2.431.856.47 1.062.699 1.097 1.212.02.32-.043.54-.225.781-.209.277-.477.407-.872.435-.213.011-.36 0-.45-.036m1.954-4.835a4.379 4.379 0 0 1-.565-.284c-2.467-1.425-5.7-2.392-9.15-2.74-2.92-.296-6.204-.055-8.703.632-.679.19-.884.217-1.149.173a1.46 1.46 0 0 1-1.089-.757c-.126-.233-.13-.269-.13-.64 0-.343.012-.426.098-.615.123-.257.403-.55.64-.664.3-.146 1.374-.426 2.435-.635 4.899-.971 10.543-.525 15.201 1.208a23.742 23.742 0 0 1 3.576 1.685c.312.186.58.482.687.766.122.327.099.813-.051 1.117-.241.49-.687.774-1.271.81-.265.01-.38.003-.53-.056m2.314-5.585c-.095-.028-.419-.186-.722-.344a19.622 19.622 0 0 0-3.332-1.42c-2.392-.794-5.064-1.276-8.092-1.457-.844-.052-3.272-.052-4.105 0-1.918.114-3.817.398-5.23.773-.94.249-1.07.269-1.401.217a1.761 1.761 0 0 1-1.346-.97c-.13-.269-.134-.293-.134-.73 0-.435.004-.47.126-.715.158-.324.458-.636.754-.786.422-.213 1.87-.568 3.296-.809 3.027-.513 6.686-.616 10.014-.276 4.338.442 8.254 1.551 11.186 3.17.616.339.845.536 1.034.895.462.877.111 1.91-.793 2.33-.26.118-.347.137-.69.157-.273.012-.45 0-.565-.035"/><path fill="#24c8db" stroke="#24c8db" d="M18.805 47.974c-3.375-.177-6.513-1.192-9.264-2.996-4.16-2.727-6.998-6.919-7.993-11.802-.387-1.894-.454-3.95-.197-6.007.272-2.171 1.065-4.571 2.163-6.529a18.561 18.561 0 0 1 5.115-5.834c.249-.185.462-.335.47-.328.004.004-.036.237-.087.517a17.287 17.287 0 0 0-.304 3.289c.004 1.128.067 1.874.265 3.09l.102.62-.256.387a12.92 12.92 0 0 0-2.155 7.895c.292 5.525 4.05 10.234 9.39 11.77 4.109 1.18 8.573.233 11.889-2.519.718-.596 1.484-1.409 2.124-2.25.094-.13.098-.13.75-.225 2.028-.292 4.172-.923 5.94-1.752l.418-.197-.027.126c-.091.41-.655 1.788-1.086 2.637a18.438 18.438 0 0 1-9.339 8.695c-1.894.798-4.176 1.319-6.082 1.39-.289.008-.664.027-.837.04-.174.007-.624 0-.999-.017"/></g></svg>