<svg xmlns="http://www.w3.org/2000/svg" viewBox="-30 0 1280 1280">
	<path
		d="M 688.500 1.034 C 570.187 11.261, 462.341 60.889, 379.992 143 C 331.673 191.180, 294.922 246.716, 269.823 309.482 C 264.866 321.878, 256.846 345.179, 257.359 345.692 C 257.569 345.902, 263.691 343.348, 270.963 340.017 C 307.777 323.154, 346.769 309.996, 386.102 301.164 C 398.482 298.384, 429.613 292.952, 441.615 291.478 L 446.729 290.850 456.615 278.175 C 468.616 262.788, 495.510 235.558, 510.500 223.617 C 573.462 173.465, 648.356 146.989, 727.222 147.003 C 748.704 147.007, 763.417 148.114, 782 151.125 C 841.835 160.821, 896.214 185, 944.330 223.305 C 956.226 232.777, 980.274 256.049, 989.995 267.500 C 1034.347 319.741, 1061.240 380.768, 1070.639 450.500 C 1072.862 466.995, 1073.162 512.074, 1071.158 528.500 C 1064.137 586.041, 1045.950 636.117, 1015.275 682.359 L 1007.885 693.500 1011.906 719.500 C 1019.887 771.111, 1019.754 818.323, 1011.483 870 C 1009.150 884.575, 1007.345 896.620, 1007.472 896.767 C 1008.269 897.695, 1038.374 874.285, 1053.654 860.856 C 1150.149 776.046, 1208.680 658.142, 1219.072 527.640 C 1220.632 508.056, 1219.759 456.225, 1217.564 438 C 1210.373 378.316, 1195.156 326.176, 1170.061 275.233 C 1144.752 223.857, 1116.504 184.419, 1076.039 143.968 C 1035.954 103.897, 995.971 75.255, 945.500 50.457 C 893.069 24.696, 841.462 9.589, 781.500 2.447 C 765.375 0.527, 704.982 -0.391, 688.500 1.034"
		stroke="none" fill="#fcc434" fill-rule="evenodd" />
	<path
		d="M 469 305.104 C 348.003 312.367, 232.994 362.989, 146.626 447 C 60.902 530.383, 10.380 637.658, 0.928 756.360 C -0.649 776.167, 0.239 827.856, 2.469 846 C 16.141 957.257, 63.428 1054.533, 141.983 1133 C 227.883 1218.805, 340.046 1269.688, 463.979 1279.075 C 484.306 1280.615, 537.519 1279.739, 556.983 1277.544 C 590.722 1273.740, 627.820 1265.845, 658.708 1255.896 C 821.955 1203.314, 946.679 1072.426, 988.097 910.230 C 1013.399 811.143, 1005.681 703.629, 966.512 609.567 C 920.584 499.273, 835.676 409.578, 726.500 356.025 C 647.551 317.299, 558.666 299.721, 469 305.104 M 390 563.592 C 331.512 566.758, 302.773 569.694, 263.015 576.564 C 230.711 582.147, 191.608 591.763, 181.206 596.683 C 168.766 602.567, 158.189 616.829, 156.128 630.500 C 152.114 657.120, 174.486 682, 202.438 682 C 204.728 682, 217.236 679.312, 230.233 676.026 C 243.229 672.740, 260.981 668.720, 269.682 667.092 C 385.410 645.440, 528.192 649.589, 644.663 677.988 C 704.069 692.473, 745.241 708.012, 796.721 735.375 C 809.557 742.198, 817.413 743.879, 828.210 742.115 C 838.825 740.381, 846.997 736.205, 854.329 728.767 C 868.938 713.948, 871.822 695.397, 862.407 676.817 C 856.836 665.823, 848.298 659.673, 816.500 643.752 C 729.538 600.210, 620.838 573.657, 494 564.972 C 478.670 563.922, 402.559 562.913, 390 563.592 M 374.500 731.996 C 321.361 735.404, 273.491 743.039, 229.085 755.189 C 221.158 757.358, 212.456 760.256, 209.748 761.628 C 195.712 768.740, 187.094 785.636, 189.992 800.363 C 193.407 817.721, 207.289 830.252, 224.656 831.653 C 230.730 832.142, 233.919 831.580, 253 826.654 C 326.809 807.597, 402.632 801.988, 484 809.563 C 576.608 818.185, 666.575 845.053, 733.533 884.082 C 749.618 893.458, 759.966 894.978, 773.426 889.942 C 780.658 887.236, 790.031 878.686, 793.448 871.678 C 800.667 856.869, 797.818 840.459, 786.055 829.089 C 777.919 821.225, 742.972 802.566, 710.478 788.736 C 638.715 758.193, 564.191 740.508, 475.500 732.977 C 458.839 731.563, 391.466 730.908, 374.500 731.996 M 391 890.613 C 341.869 893.389, 294.713 899.581, 247.507 909.454 C 225.080 914.145, 218.731 917.738, 213.290 928.818 C 209.671 936.189, 209.435 946.048, 212.707 953.220 C 215.684 959.743, 222.852 966.427, 229.567 968.939 C 236.772 971.635, 243.332 971.542, 257.180 968.548 C 342.422 950.118, 428.660 945.377, 502.787 955.045 C 566.577 963.364, 624.847 982.157, 677.382 1011.355 C 685.856 1016.065, 694.889 1020.447, 697.454 1021.093 C 711.676 1024.674, 727.788 1016.202, 732.939 1002.433 C 738.654 987.160, 732.338 973.561, 714.844 963.471 C 646.265 923.914, 569.817 900.494, 483 892.445 C 467.404 890.999, 405.862 889.773, 391 890.613"
		stroke="none" fill="#1cd464" fill-rule="evenodd" />
</svg>
